<?xml version="1.0" encoding="UTF-8" standalone="no"?><svg xmlns="http://www.w3.org/2000/svg" xmlns:xlink="http://www.w3.org/1999/xlink" contentScriptType="application/ecmascript" contentStyleType="text/css" height="113px" preserveAspectRatio="none" style="width:721px;height:113px;" version="1.1" viewBox="0 0 721 113" width="721px" zoomAndPan="magnify"><defs/><g><ellipse cx="603.8909" cy="25.242" fill="#F8F8F8" rx="41.8909" ry="13.242" style="stroke: #383838; stroke-width: 0.5;"/><text fill="#000000" font-family="Tahoma, sans-serif" font-size="12" font-weight="bold" lengthAdjust="spacingAndGlyphs" textLength="55" x="576.3909" y="28.9842">example</text><!--entity _exampleMediator--><rect fill="#F8F8F8" height="34.4844" rx="2" ry="2" style="stroke: #000000; stroke-width: 0.5;" width="132" x="6" y="8"/><text fill="#000000" font-family="Tahoma, sans-serif" font-size="12" font-weight="bold" lengthAdjust="spacingAndGlyphs" textLength="112" x="16" y="30.0059">exampleMediator</text><!--entity _ExampleObserver--><rect fill="#F8F8F8" height="34.4844" rx="2" ry="2" style="stroke: #000000; stroke-width: 0.5;" width="135" x="235.5" y="8"/><text fill="#000000" font-family="Tahoma, sans-serif" font-size="12" font-weight="bold" lengthAdjust="spacingAndGlyphs" textLength="115" x="245.5" y="30.0059">ExampleObserver</text><ellipse cx="685.1274" cy="25.242" fill="#F8F8F8" rx="25.6274" ry="13.242" style="stroke: #383838; stroke-width: 0.5;"/><text fill="#000000" font-family="Tahoma, sans-serif" font-size="12" font-weight="bold" lengthAdjust="spacingAndGlyphs" textLength="32" x="669.1274" y="28.9842">main</text><!--entity _mediator--><rect fill="#F8F8F8" height="34.4844" rx="2" ry="2" style="stroke: #000000; stroke-width: 0.5;" width="71" x="151.5" y="8"/><text fill="#000000" font-family="Tahoma, sans-serif" font-size="12" lengthAdjust="spacingAndGlyphs" textLength="51" x="161.5" y="30.0059">mediator</text><!--entity _observer--><rect fill="#F8F8F8" height="34.4844" rx="2" ry="2" style="stroke: #000000; stroke-width: 0.5;" width="70" x="384" y="8"/><text fill="#000000" font-family="Tahoma, sans-serif" font-size="12" lengthAdjust="spacingAndGlyphs" textLength="50" x="394" y="30.0059">observer</text><!--entity _singleton--><rect fill="#F8F8F8" height="34.4844" rx="2" ry="2" style="stroke: #000000; stroke-width: 0.5;" width="82" x="467" y="8"/><text fill="#000000" font-family="Tahoma, sans-serif" font-size="12" font-weight="bold" lengthAdjust="spacingAndGlyphs" textLength="62" x="477" y="30.0059">singleton</text><!--entity _subject--><rect fill="#F8F8F8" height="34.4844" rx="2" ry="2" style="stroke: #000000; stroke-width: 0.5;" width="63" x="387.5" y="68"/><text fill="#000000" font-family="Tahoma, sans-serif" font-size="12" lengthAdjust="spacingAndGlyphs" textLength="43" x="397.5" y="90.0059">subject</text><!--entity _tools--><rect fill="#F8F8F8" height="34.4844" rx="2" ry="2" style="stroke: #000000; stroke-width: 0.5;" width="55" x="576.5" y="68"/><text fill="#000000" font-family="Tahoma, sans-serif" font-size="12" font-weight="bold" lengthAdjust="spacingAndGlyphs" textLength="35" x="586.5" y="90.0059">tools</text><!--link _exampleMediator to _mediator--><path d="M138.035,25 C140.824,25 143.614,25 146.403,25 " fill="none" id="_exampleMediator-_mediator" style="stroke: #000000; stroke-width: 1.0;"/><polygon fill="#000000" points="151.424,25,142.424,21,146.424,25,142.424,29,151.424,25" style="stroke: #000000; stroke-width: 1.0;"/><!--link _ExampleObserver to _observer--><path d="M370.516,25 C373.139,25 375.763,25 378.387,25 " fill="none" id="_ExampleObserver-_observer" style="stroke: #000000; stroke-width: 1.0;"/><polygon fill="#000000" points="383.773,25,374.773,21,378.773,25,374.773,29,383.773,25" style="stroke: #000000; stroke-width: 1.0;"/><!--link _ExampleObserver to _subject--><path d="M335.005,42.0023 C349.712,49.356 367.231,58.1155 382.455,65.7273 " fill="none" id="_ExampleObserver-_subject" style="stroke: #000000; stroke-width: 1.0;"/><polygon fill="#000000" points="387.1,68.0499,380.8385,60.4477,382.6277,65.8141,377.2613,67.6033,387.1,68.0499" style="stroke: #000000; stroke-width: 1.0;"/><!--link _observer to _subject--><path d="M414.918,42.1562 C414.472,48.5667 414.383,56.0265 414.65,62.8573 " fill="none" id="_observer-_subject" style="stroke: #000000; stroke-width: 0.55;"/><polygon fill="#000000" points="414.924,67.9304,418.4332,58.7279,414.6546,62.9377,410.4449,59.159,414.924,67.9304" style="stroke: #000000; stroke-width: 0.55;"/><!--link _subject to _observer--><path d="M423.756,67.9304 C424.279,61.5294 424.387,54.0715 424.079,47.2351 " fill="none" id="_subject-_observer" style="stroke: #000000; stroke-width: 0.55;"/><polygon fill="#000000" points="423.763,42.1562,420.3306,51.3876,424.074,47.1465,428.3151,50.89,423.763,42.1562" style="stroke: #000000; stroke-width: 0.55;"/><!--link _singleton to _subject--><path d="M483.209,42.1562 C472.311,49.2581 459.437,57.6477 448.089,65.0432 " fill="none" id="_singleton-_subject" style="stroke: #000000; stroke-width: 1.0;"/><polygon fill="#000000" points="443.659,67.9304,453.3831,66.3676,447.8479,65.2004,449.0151,59.6653,443.659,67.9304" style="stroke: #000000; stroke-width: 1.0;"/><!--link <b>example</b> to <b>main</b>--><!--link <b>example</b> to _tools--><script type="text/plantuml"><![CDATA[
@startuml

scale max 1920 width
top to bottom direction

skinparam nodesep 13
skinparam ranksep 26
skinparam monochrome true
skinparam shadowing false
skinparam defaultFontName Tahoma
skinparam defaultFontSize 12
skinparam roundCorner 4
skinparam dpi 150
skinparam arrowColor black
skinparam arrowThickness 0.55
skinparam packageTitleAlignment left

skinparam usecase {
  borderThickness 0.5
}

skinparam rectangle {
  borderThickness 0.5
}

skinparam component {
  borderThickness 1
}


(<b>example</b>)
rectangle "<b>exampleMediator</b>" as _exampleMediator
rectangle "<b>ExampleObserver</b>" as _ExampleObserver
(<b>main</b>)
rectangle "mediator" as _mediator
rectangle "observer" as _observer
rectangle "<b>singleton</b>" as _singleton
rectangle "subject" as _subject
rectangle "<b>tools</b>" as _tools


_exampleMediator -[thickness=1]> _mediator
_ExampleObserver -[thickness=1]> _observer
_ExampleObserver --[thickness=1]> _subject
_observer --> _subject
_singleton --[thickness=1]> _subject
_subject --> _observer

@enduml


' View and edit on https://arkit.pro
]]></script></g></svg>